<svg width="140" height="140" viewBox="0 0 140 140" fill="none" xmlns="http://www.w3.org/2000/svg">
<circle cx="70" cy="70" r="70" fill="#181818"/>
<path d="M41.7517 63.6114C39.7077 51.0206 49.4279 39.5952 62.1835 39.5952H80.0109C92.747 39.5952 102.32 51.2136 99.8852 63.7147C98.8152 69.2071 100.112 74.9612 103.386 79.4988C113.548 93.5801 103.705 113.552 86.3399 113.552H70H54.6858C37.1752 113.552 27.306 93.3973 37.8354 79.4061C41.2258 74.9011 42.6551 69.1769 41.7517 63.6114Z" fill="#C1E7BF"/>
<ellipse cx="69.5123" cy="89.112" rx="9.98837" ry="5.73802" fill="#131313"/>
<ellipse cx="56.7555" cy="70.1986" rx="7.43815" ry="6.80061" fill="#131313"/>
<ellipse cx="84.381" cy="70.1986" rx="7.43815" ry="6.80061" fill="#131313"/>
<path d="M33.9076 72.9607C28.0305 87.6755 19.8194 84.8066 12.6255 81.9333C5.43156 79.0601 6.82421 72.9608 15.3249 61.2721C21.202 46.5572 30.8064 35.1267 38.0003 38C45.1943 40.8732 39.7847 58.2458 33.9076 72.9607Z" fill="#C1E7BF"/>
<path d="M107.091 72.9611C112.969 87.676 121.18 84.8071 128.374 81.9338C135.567 79.0605 134.175 72.9612 125.674 61.2725C119.797 46.5577 111.194 36.6267 104 39.5C96.8061 42.3733 101.214 58.2463 107.091 72.9611Z" fill="#C1E7BF"/>
</svg>
