<svg width="140" height="140" viewBox="0 0 140 140" fill="none" xmlns="http://www.w3.org/2000/svg">
<circle cx="70" cy="70" r="70" fill="#131313"/>
<ellipse cx="70.6372" cy="77.4154" rx="43.7719" ry="43.7719" fill="#DEE18D"/>
<path d="M38.1134 19L43.1005 38.1005H24L38.1134 19Z" fill="#DEE18D"/>
<path d="M101.887 19L96.9 38.1005H116L101.887 19Z" fill="#DEE18D"/>
<path d="M73.5713 88.6943H68.0225L70.7969 83.1484L73.5713 88.6943Z" fill="#131313" stroke="#131313"/>
<path d="M54.8799 60.5659C56.0574 60.566 57.1941 61.3127 58.0605 62.6665C58.9234 64.0148 59.4727 65.9083 59.4727 68.0249C59.4726 70.1413 58.9233 72.0342 58.0605 73.3823C57.1941 74.7361 56.0574 75.4828 54.8799 75.4829C53.7022 75.4829 52.5657 74.7362 51.6992 73.3823C50.8364 72.0341 50.2862 70.1414 50.2861 68.0249C50.2861 65.9082 50.8363 64.0148 51.6992 62.6665C52.5657 61.3126 53.7022 60.5659 54.8799 60.5659Z" fill="#131313" stroke="#131313"/>
<line x1="46.9015" y1="77.3011" x2="30.0295" y2="76.9827" stroke="#131313" stroke-width="2"/>
<line x1="47.1985" y1="82.0372" x2="35.1015" y2="85.539" stroke="#131313" stroke-width="2"/>
<path d="M86.7134 60.5659C85.5358 60.566 84.3991 61.3127 83.5327 62.6665C82.6699 64.0148 82.1206 65.9083 82.1206 68.0249C82.1207 70.1413 82.67 72.0342 83.5327 73.3823C84.3991 74.7361 85.5358 75.4828 86.7134 75.4829C87.891 75.4829 89.0276 74.7362 89.894 73.3823C90.7569 72.0341 91.307 70.1414 91.3071 68.0249C91.3071 65.9082 90.7569 64.0148 89.894 62.6665C89.0276 61.3126 87.891 60.5659 86.7134 60.5659Z" fill="#131313" stroke="#131313"/>
<line y1="-1" x2="16.8751" y2="-1" transform="matrix(0.999822 -0.0188645 -0.0188646 -0.999822 94.6724 76.3013)" stroke="#131313" stroke-width="2"/>
<line y1="-1" x2="12.5936" y2="-1" transform="matrix(0.960564 0.278058 0.278058 -0.960564 94.6724 81.0767)" stroke="#131313" stroke-width="2"/>
</svg>
