<svg width="140" height="140" viewBox="0 0 140 140" fill="none" xmlns="http://www.w3.org/2000/svg">
<circle cx="70" cy="70" r="70" fill="#131313"/>
<path d="M43.9832 41.2665C45.4348 49.1458 36.8452 60.8358 28.8675 62.3055C20.8897 63.7752 17.0799 54.3696 15.6283 46.4903C14.1767 38.611 19.4672 31.0322 27.445 29.5625C35.4227 28.0928 42.5317 33.3873 43.9832 41.2665Z" fill="#E6B8EE"/>
<path d="M95.4777 41.2665C94.0261 49.1458 102.616 60.8358 110.593 62.3055C118.571 63.7752 122.381 54.3696 123.833 46.4903C125.284 38.611 119.994 31.0322 112.016 29.5625C104.038 28.0928 96.9293 33.3873 95.4777 41.2665Z" fill="#E6B8EE"/>
<ellipse cx="69.0137" cy="78.6666" rx="45.3335" ry="45.3336" fill="#E6B8EE"/>
<ellipse cx="68.8329" cy="92.9919" rx="25.2054" ry="18.6774" fill="white" fill-opacity="0.2"/>
<ellipse cx="69" cy="93" rx="6" ry="5" fill="#1E1E1E"/>
<ellipse cx="47.9796" cy="68.8741" rx="5.44002" ry="5.44003" fill="#1E1E1E"/>
<ellipse cx="90.0494" cy="68.8746" rx="5.44002" ry="5.44003" fill="#1E1E1E"/>
</svg>
